<svg width="241" height="22" viewBox="0 0 241 22" fill="none" xmlns="http://www.w3.org/2000/svg">
<path d="M19.472 12.348V0.796H23.728V12.796C23.728 14.1613 23.5253 15.356 23.12 16.38C22.736 17.404 22.1813 18.268 21.456 18.972C20.7307 19.676 19.8773 20.252 18.896 20.7C17.936 21.1267 16.88 21.436 15.728 21.628C14.5973 21.82 13.4027 21.916 12.144 21.916C10.8427 21.916 9.60533 21.82 8.432 21.628C7.25867 21.436 6.18133 21.1267 5.2 20.7C4.24 20.252 3.408 19.676 2.704 18.972C2 18.268 1.44533 17.404 1.04 16.38C0.656 15.356 0.464 14.1613 0.464 12.796V0.796H4.72V12.348C4.72 13.9693 5.04 15.2067 5.68 16.06C6.32 16.892 7.19467 17.468 8.304 17.788C9.43467 18.0867 10.7147 18.236 12.144 18.236C13.5307 18.236 14.768 18.0867 15.856 17.788C16.9653 17.468 17.84 16.892 18.48 16.06C19.1413 15.2067 19.472 13.9693 19.472 12.348ZM49.6435 17.276L48.2995 17.82V0.796H52.5555V21.5H48.2995L31.5635 5.148L32.9075 4.604V21.5H28.6515V0.796H32.9075L49.6435 17.276ZM58.1033 0.796H62.3593V21.5H58.1033V0.796ZM88.0623 0.796V4.348H72.1263V9.916H85.1823V13.244H72.1263V21.5H67.8703V0.796H88.0623ZM110.597 12.348V0.796H114.853V12.796C114.853 14.1613 114.65 15.356 114.245 16.38C113.861 17.404 113.306 18.268 112.581 18.972C111.856 19.676 111.002 20.252 110.021 20.7C109.061 21.1267 108.005 21.436 106.853 21.628C105.722 21.82 104.528 21.916 103.269 21.916C101.968 21.916 100.73 21.82 99.557 21.628C98.3837 21.436 97.3063 21.1267 96.325 20.7C95.365 20.252 94.533 19.676 93.829 18.972C93.125 18.268 92.5703 17.404 92.165 16.38C91.781 15.356 91.589 14.1613 91.589 12.796V0.796H95.845V12.348C95.845 13.9693 96.165 15.2067 96.805 16.06C97.445 16.892 98.3197 17.468 99.429 17.788C100.56 18.0867 101.84 18.236 103.269 18.236C104.656 18.236 105.893 18.0867 106.981 17.788C108.09 17.468 108.965 16.892 109.605 16.06C110.266 15.2067 110.597 13.9693 110.597 12.348ZM119.777 21.5V0.796H133.825C135.425 0.796 136.811 1.02 137.985 1.468C139.179 1.89467 140.107 2.57733 140.769 3.516C141.43 4.43333 141.761 5.61733 141.761 7.068C141.761 8.04933 141.59 8.88133 141.249 9.564C140.907 10.2467 140.427 10.8013 139.809 11.228C139.211 11.6547 138.518 11.9853 137.729 12.22C136.939 12.4333 136.097 12.572 135.201 12.636L134.753 12.38C136.246 12.4013 137.473 12.5293 138.433 12.764C139.393 12.9773 140.107 13.3827 140.577 13.98C141.067 14.556 141.313 15.42 141.313 16.572V21.5H137.057V16.86C137.057 16.0707 136.918 15.4627 136.641 15.036C136.363 14.588 135.862 14.2787 135.137 14.108C134.433 13.9373 133.409 13.852 132.065 13.852H124.033V21.5H119.777ZM124.033 10.524H133.825C135.019 10.524 135.926 10.236 136.545 9.66C137.185 9.084 137.505 8.30533 137.505 7.324C137.505 6.38533 137.185 5.67067 136.545 5.18C135.926 4.68933 135.019 4.444 133.825 4.444H124.033V10.524ZM150.502 17.852V21.5H145.67V17.852H150.502ZM153.718 16.22H157.558C157.792 16.9453 158.272 17.5427 158.998 18.012C159.744 18.46 160.715 18.684 161.91 18.684C162.72 18.684 163.35 18.6093 163.798 18.46C164.246 18.3107 164.555 18.0973 164.726 17.82C164.896 17.5213 164.982 17.1907 164.982 16.828C164.982 16.38 164.843 16.0387 164.566 15.804C164.288 15.548 163.862 15.3453 163.286 15.196C162.71 15.0467 161.974 14.908 161.078 14.78C160.182 14.6307 159.318 14.4493 158.486 14.236C157.654 14.0227 156.918 13.7453 156.278 13.404C155.638 13.0413 155.126 12.5933 154.742 12.06C154.379 11.5053 154.198 10.8333 154.198 10.044C154.198 9.276 154.379 8.59333 154.742 7.996C155.126 7.39867 155.648 6.89733 156.31 6.492C156.992 6.08667 157.782 5.77733 158.678 5.564C159.595 5.35067 160.576 5.244 161.622 5.244C163.2 5.244 164.512 5.47867 165.558 5.948C166.603 6.396 167.382 7.036 167.894 7.868C168.427 8.67867 168.694 9.61733 168.694 10.684H165.014C164.843 9.89467 164.502 9.32933 163.99 8.988C163.478 8.62533 162.688 8.444 161.622 8.444C160.576 8.444 159.787 8.604 159.254 8.924C158.72 9.244 158.454 9.68133 158.454 10.236C158.454 10.684 158.614 11.036 158.934 11.292C159.275 11.5267 159.766 11.7187 160.406 11.868C161.067 12.0173 161.888 12.1773 162.87 12.348C163.702 12.5187 164.491 12.7107 165.238 12.924C166.006 13.1373 166.688 13.4147 167.286 13.756C167.883 14.076 168.352 14.5133 168.694 15.068C169.056 15.6013 169.238 16.284 169.238 17.116C169.238 18.14 168.939 19.004 168.342 19.708C167.766 20.412 166.934 20.956 165.846 21.34C164.758 21.7027 163.456 21.884 161.942 21.884C160.598 21.884 159.435 21.7453 158.454 21.468C157.494 21.1693 156.694 20.796 156.054 20.348C155.414 19.8787 154.912 19.388 154.549 18.876C154.208 18.3427 153.974 17.8413 153.846 17.372C153.718 16.9027 153.675 16.5187 153.718 16.22ZM171.3 5.596H183.652V8.828H171.3V5.596ZM175.396 1.244H179.556V21.5H175.396V1.244ZM195.452 21.884C193.447 21.884 191.676 21.564 190.14 20.924C188.626 20.284 187.442 19.356 186.588 18.14C185.735 16.9027 185.308 15.388 185.308 13.596C185.308 11.804 185.735 10.2893 186.588 9.052C187.442 7.79333 188.626 6.844 190.14 6.204C191.676 5.564 193.447 5.244 195.452 5.244C197.458 5.244 199.207 5.564 200.7 6.204C202.215 6.844 203.399 7.79333 204.252 9.052C205.106 10.2893 205.532 11.804 205.532 13.596C205.532 15.388 205.106 16.9027 204.252 18.14C203.399 19.356 202.215 20.284 200.7 20.924C199.207 21.564 197.458 21.884 195.452 21.884ZM195.452 18.684C196.562 18.684 197.554 18.492 198.428 18.108C199.324 17.7027 200.028 17.1267 200.54 16.38C201.052 15.612 201.308 14.684 201.308 13.596C201.308 12.508 201.052 11.58 200.54 10.812C200.028 10.0227 199.335 9.42533 198.46 9.02C197.586 8.61467 196.583 8.412 195.452 8.412C194.343 8.412 193.34 8.61467 192.444 9.02C191.548 9.42533 190.834 10.012 190.3 10.78C189.788 11.548 189.532 12.4867 189.532 13.596C189.532 14.684 189.788 15.612 190.3 16.38C190.812 17.1267 191.516 17.7027 192.412 18.108C193.308 18.492 194.322 18.684 195.452 18.684ZM208.608 5.596H212.768V21.5H208.608V5.596ZM218.88 9.02C217.685 9.02 216.65 9.25467 215.776 9.724C214.901 10.172 214.197 10.7267 213.664 11.388C213.13 12.0493 212.757 12.6893 212.544 13.308L212.512 11.548C212.533 11.292 212.618 10.9187 212.768 10.428C212.917 9.916 213.141 9.372 213.44 8.796C213.738 8.19867 214.133 7.63333 214.624 7.1C215.114 6.54533 215.712 6.09733 216.416 5.756C217.12 5.41467 217.941 5.244 218.88 5.244V9.02ZM235.947 16.22H239.979C239.809 17.308 239.35 18.2787 238.603 19.132C237.878 19.9853 236.886 20.6573 235.627 21.148C234.369 21.6387 232.833 21.884 231.019 21.884C228.993 21.884 227.201 21.564 225.643 20.924C224.086 20.2627 222.87 19.3133 221.995 18.076C221.121 16.8387 220.683 15.3453 220.683 13.596C220.683 11.8467 221.11 10.3533 221.963 9.116C222.817 7.85733 224.001 6.89733 225.515 6.236C227.051 5.57467 228.843 5.244 230.891 5.244C232.982 5.244 234.721 5.57467 236.107 6.236C237.494 6.89733 238.518 7.9 239.179 9.244C239.862 10.5667 240.15 12.2627 240.043 14.332H224.875C224.982 15.1427 225.281 15.8787 225.771 16.54C226.283 17.2013 226.966 17.724 227.819 18.108C228.694 18.492 229.729 18.684 230.923 18.684C232.246 18.684 233.345 18.46 234.219 18.012C235.115 17.5427 235.691 16.9453 235.947 16.22ZM230.699 8.412C229.163 8.412 227.915 8.75333 226.955 9.436C225.995 10.0973 225.377 10.9187 225.099 11.9H235.915C235.809 10.8333 235.297 9.99067 234.379 9.372C233.483 8.732 232.257 8.412 230.699 8.412Z" fill="#2D322B"/>
</svg>
