<svg width="241" height="22" viewBox="0 0 241 22" fill="none" xmlns="http://www.w3.org/2000/svg">
<path d="M19.472 11.848V0.296H23.728V12.296C23.728 13.6613 23.5253 14.856 23.12 15.88C22.736 16.904 22.1813 17.768 21.456 18.472C20.7307 19.176 19.8773 19.752 18.896 20.2C17.936 20.6267 16.88 20.936 15.728 21.128C14.5973 21.32 13.4027 21.416 12.144 21.416C10.8427 21.416 9.60533 21.32 8.432 21.128C7.25867 20.936 6.18133 20.6267 5.2 20.2C4.24 19.752 3.408 19.176 2.704 18.472C2 17.768 1.44533 16.904 1.04 15.88C0.656 14.856 0.464 13.6613 0.464 12.296V0.296H4.72V11.848C4.72 13.4693 5.04 14.7067 5.68 15.56C6.32 16.392 7.19467 16.968 8.304 17.288C9.43467 17.5867 10.7147 17.736 12.144 17.736C13.5307 17.736 14.768 17.5867 15.856 17.288C16.9653 16.968 17.84 16.392 18.48 15.56C19.1413 14.7067 19.472 13.4693 19.472 11.848ZM49.6435 16.776L48.2995 17.32V0.296H52.5555V21H48.2995L31.5635 4.648L32.9075 4.104V21H28.6515V0.296H32.9075L49.6435 16.776ZM58.1033 0.296H62.3593V21H58.1033V0.296ZM88.0623 0.296V3.848H72.1263V9.416H85.1823V12.744H72.1263V21H67.8703V0.296H88.0623ZM110.597 11.848V0.296H114.853V12.296C114.853 13.6613 114.65 14.856 114.245 15.88C113.861 16.904 113.306 17.768 112.581 18.472C111.856 19.176 111.002 19.752 110.021 20.2C109.061 20.6267 108.005 20.936 106.853 21.128C105.722 21.32 104.528 21.416 103.269 21.416C101.968 21.416 100.73 21.32 99.557 21.128C98.3837 20.936 97.3063 20.6267 96.325 20.2C95.365 19.752 94.533 19.176 93.829 18.472C93.125 17.768 92.5703 16.904 92.165 15.88C91.781 14.856 91.589 13.6613 91.589 12.296V0.296H95.845V11.848C95.845 13.4693 96.165 14.7067 96.805 15.56C97.445 16.392 98.3197 16.968 99.429 17.288C100.56 17.5867 101.84 17.736 103.269 17.736C104.656 17.736 105.893 17.5867 106.981 17.288C108.09 16.968 108.965 16.392 109.605 15.56C110.266 14.7067 110.597 13.4693 110.597 11.848ZM119.777 21V0.296H133.825C135.425 0.296 136.811 0.519999 137.985 0.967999C139.179 1.39467 140.107 2.07733 140.769 3.016C141.43 3.93333 141.761 5.11733 141.761 6.568C141.761 7.54933 141.59 8.38133 141.249 9.064C140.907 9.74667 140.427 10.3013 139.809 10.728C139.211 11.1547 138.518 11.4853 137.729 11.72C136.939 11.9333 136.097 12.072 135.201 12.136L134.753 11.88C136.246 11.9013 137.473 12.0293 138.433 12.264C139.393 12.4773 140.107 12.8827 140.577 13.48C141.067 14.056 141.313 14.92 141.313 16.072V21H137.057V16.36C137.057 15.5707 136.918 14.9627 136.641 14.536C136.363 14.088 135.862 13.7787 135.137 13.608C134.433 13.4373 133.409 13.352 132.065 13.352H124.033V21H119.777ZM124.033 10.024H133.825C135.019 10.024 135.926 9.736 136.545 9.16C137.185 8.584 137.505 7.80533 137.505 6.824C137.505 5.88533 137.185 5.17067 136.545 4.68C135.926 4.18933 135.019 3.944 133.825 3.944H124.033V10.024ZM150.502 17.352V21H145.67V17.352H150.502ZM153.718 15.72H157.558C157.792 16.4453 158.272 17.0427 158.998 17.512C159.744 17.96 160.715 18.184 161.91 18.184C162.72 18.184 163.35 18.1093 163.798 17.96C164.246 17.8107 164.555 17.5973 164.726 17.32C164.896 17.0213 164.982 16.6907 164.982 16.328C164.982 15.88 164.843 15.5387 164.566 15.304C164.288 15.048 163.862 14.8453 163.286 14.696C162.71 14.5467 161.974 14.408 161.078 14.28C160.182 14.1307 159.318 13.9493 158.486 13.736C157.654 13.5227 156.918 13.2453 156.278 12.904C155.638 12.5413 155.126 12.0933 154.742 11.56C154.379 11.0053 154.198 10.3333 154.198 9.544C154.198 8.776 154.379 8.09333 154.742 7.496C155.126 6.89867 155.648 6.39733 156.31 5.992C156.992 5.58667 157.782 5.27733 158.678 5.064C159.595 4.85067 160.576 4.744 161.622 4.744C163.2 4.744 164.512 4.97867 165.558 5.448C166.603 5.896 167.382 6.536 167.894 7.368C168.427 8.17867 168.694 9.11733 168.694 10.184H165.014C164.843 9.39467 164.502 8.82933 163.99 8.488C163.478 8.12533 162.688 7.944 161.622 7.944C160.576 7.944 159.787 8.104 159.254 8.424C158.72 8.744 158.454 9.18133 158.454 9.736C158.454 10.184 158.614 10.536 158.934 10.792C159.275 11.0267 159.766 11.2187 160.406 11.368C161.067 11.5173 161.888 11.6773 162.87 11.848C163.702 12.0187 164.491 12.2107 165.238 12.424C166.006 12.6373 166.688 12.9147 167.286 13.256C167.883 13.576 168.352 14.0133 168.694 14.568C169.056 15.1013 169.238 15.784 169.238 16.616C169.238 17.64 168.939 18.504 168.342 19.208C167.766 19.912 166.934 20.456 165.846 20.84C164.758 21.2027 163.456 21.384 161.942 21.384C160.598 21.384 159.435 21.2453 158.454 20.968C157.494 20.6693 156.694 20.296 156.054 19.848C155.414 19.3787 154.912 18.888 154.549 18.376C154.208 17.8427 153.974 17.3413 153.846 16.872C153.718 16.4027 153.675 16.0187 153.718 15.72ZM171.3 5.096H183.652V8.328H171.3V5.096ZM175.396 0.743999H179.556V21H175.396V0.743999ZM195.452 21.384C193.447 21.384 191.676 21.064 190.14 20.424C188.626 19.784 187.442 18.856 186.588 17.64C185.735 16.4027 185.308 14.888 185.308 13.096C185.308 11.304 185.735 9.78933 186.588 8.552C187.442 7.29333 188.626 6.344 190.14 5.704C191.676 5.064 193.447 4.744 195.452 4.744C197.458 4.744 199.207 5.064 200.7 5.704C202.215 6.344 203.399 7.29333 204.252 8.552C205.106 9.78933 205.532 11.304 205.532 13.096C205.532 14.888 205.106 16.4027 204.252 17.64C203.399 18.856 202.215 19.784 200.7 20.424C199.207 21.064 197.458 21.384 195.452 21.384ZM195.452 18.184C196.562 18.184 197.554 17.992 198.428 17.608C199.324 17.2027 200.028 16.6267 200.54 15.88C201.052 15.112 201.308 14.184 201.308 13.096C201.308 12.008 201.052 11.08 200.54 10.312C200.028 9.52267 199.335 8.92533 198.46 8.52C197.586 8.11467 196.583 7.912 195.452 7.912C194.343 7.912 193.34 8.11467 192.444 8.52C191.548 8.92533 190.834 9.512 190.3 10.28C189.788 11.048 189.532 11.9867 189.532 13.096C189.532 14.184 189.788 15.112 190.3 15.88C190.812 16.6267 191.516 17.2027 192.412 17.608C193.308 17.992 194.322 18.184 195.452 18.184ZM208.608 5.096H212.768V21H208.608V5.096ZM218.88 8.52C217.685 8.52 216.65 8.75467 215.776 9.224C214.901 9.672 214.197 10.2267 213.664 10.888C213.13 11.5493 212.757 12.1893 212.544 12.808L212.512 11.048C212.533 10.792 212.618 10.4187 212.768 9.928C212.917 9.416 213.141 8.872 213.44 8.296C213.738 7.69867 214.133 7.13333 214.624 6.6C215.114 6.04533 215.712 5.59733 216.416 5.256C217.12 4.91467 217.941 4.744 218.88 4.744V8.52ZM235.947 15.72H239.979C239.809 16.808 239.35 17.7787 238.603 18.632C237.878 19.4853 236.886 20.1573 235.627 20.648C234.369 21.1387 232.833 21.384 231.019 21.384C228.993 21.384 227.201 21.064 225.643 20.424C224.086 19.7627 222.87 18.8133 221.995 17.576C221.121 16.3387 220.683 14.8453 220.683 13.096C220.683 11.3467 221.11 9.85333 221.963 8.616C222.817 7.35733 224.001 6.39733 225.515 5.736C227.051 5.07467 228.843 4.744 230.891 4.744C232.982 4.744 234.721 5.07467 236.107 5.736C237.494 6.39733 238.518 7.4 239.179 8.744C239.862 10.0667 240.15 11.7627 240.043 13.832H224.875C224.982 14.6427 225.281 15.3787 225.771 16.04C226.283 16.7013 226.966 17.224 227.819 17.608C228.694 17.992 229.729 18.184 230.923 18.184C232.246 18.184 233.345 17.96 234.219 17.512C235.115 17.0427 235.691 16.4453 235.947 15.72ZM230.699 7.912C229.163 7.912 227.915 8.25333 226.955 8.936C225.995 9.59733 225.377 10.4187 225.099 11.4H235.915C235.809 10.3333 235.297 9.49067 234.379 8.872C233.483 8.232 232.257 7.912 230.699 7.912Z" fill="#F1F1F1"/>
</svg>
